<svg width="317" height="317" viewBox="0 0 317 317" fill="none" xmlns="http://www.w3.org/2000/svg">
<path d="M140.422 295.543C146.33 296.314 152.363 296.712 158.5 296.712V317C151.484 317 144.574 316.542 137.798 315.658L140.422 295.543ZM179.098 314.861L179.2 315.658C172.425 316.541 165.516 317 158.5 317V296.712C164.637 296.712 170.67 296.314 176.578 295.543L179.098 314.861ZM74.3699 268.167C83.8869 275.48 94.3742 281.578 105.599 286.232L97.8279 304.969C84.9427 299.625 72.9145 292.634 62.0082 284.252L74.3699 268.167ZM242.63 268.167L254.991 284.252C244.084 292.634 232.056 299.625 219.171 304.969L211.401 286.232C222.626 281.578 233.113 275.48 242.63 268.167ZM30.7676 211.401C35.4225 222.626 41.5195 233.113 48.8329 242.63L40.7877 248.81L40.789 248.812L32.7463 254.991C24.3654 244.084 17.3732 232.056 12.0299 219.171L30.7676 211.401ZM304.969 219.171C299.625 232.056 292.634 244.084 284.252 254.991L268.167 242.63C275.48 233.113 281.578 222.626 286.232 211.401L304.969 219.171ZM0 158.5C0 151.484 0.457253 144.574 1.34106 137.798L21.4569 140.422C20.6864 146.33 20.288 152.363 20.288 158.5C20.288 164.637 20.6864 170.67 21.4569 176.578L1.65311 179.161L1.34106 179.2C0.457357 172.425 0 165.516 0 158.5ZM317 158.5C317 165.516 316.541 172.425 315.658 179.2L315.347 179.161L295.543 176.578C296.314 170.67 296.712 164.637 296.712 158.5C296.712 152.363 296.314 146.33 295.543 140.422L315.658 137.798C316.542 144.574 317 151.484 317 158.5ZM48.8329 74.3699C41.5195 83.8869 35.4225 94.3742 30.7676 105.599L12.0299 97.8279C17.3733 84.9428 24.3653 72.9145 32.7463 62.0082L48.8329 74.3699ZM284.252 62.0082C292.634 72.9145 299.625 84.9427 304.969 97.8279L286.232 105.599C281.578 94.3742 275.48 83.8869 268.167 74.3699L284.252 62.0082ZM105.599 30.7676C94.3742 35.4225 83.8869 41.5195 74.3699 48.8329L62.0082 32.7463C72.9145 24.3653 84.9428 17.3733 97.8279 12.0299L105.599 30.7676ZM219.171 12.0299C232.056 17.3732 244.084 24.3654 254.991 32.7463L242.63 48.8329C233.113 41.5195 222.626 35.4225 211.401 30.7676L219.171 12.0299ZM158.5 0C165.516 0 172.425 0.457357 179.2 1.34106L176.578 21.4569C170.67 20.6864 164.637 20.288 158.5 20.288C152.363 20.288 146.33 20.6864 140.422 21.4569L137.798 1.34106C144.574 0.457253 151.484 0 158.5 0Z" fill="#205336"/>
<path fill-rule="evenodd" clip-rule="evenodd" d="M158.5 58.328C196.4 80.2524 221.9 121.229 221.9 168.162C221.9 192.975 214.773 216.122 202.454 235.67C182.131 267.918 134.869 267.918 114.546 235.67C102.227 216.122 95.1 192.975 95.1 168.162C95.1 121.229 120.6 80.2525 158.5 58.328ZM158.5 185.128C144.494 185.128 133.14 196.482 133.14 210.488C133.14 224.494 144.494 235.848 158.5 235.848C172.506 235.848 183.86 224.494 183.86 210.488C183.86 196.482 172.506 185.128 158.5 185.128Z" fill="#205336"/>
</svg>
